Alegreya Sans SC-Regular.ufo
<glyph name="exclam" format="1">
  <advance width="256"/>
  <unicode hex="0021"/>
  <outline>
    <contour>
      <point x="106" y="657" type="line"/>
      <point x="98" y="647" type="line"/>
      <point x="98" y="222" type="line"/>
      <point x="107" y="213" type="line"/>
      <point x="154" y="218" type="line"/>
      <point x="176" y="650" type="line"/>
      <point x="167" y="660" type="line"/>
    </contour>
    <component base="period" xOffset="4"/>
  </outline>
</glyph>
<glyph name="numbersign" format="1">
  <advance width="516"/>
  <unicode hex="0023"/>
  <outline>
    <contour>
      <point x="369" y="574" type="line"/>
      <point x="249" y="39" type="line"/>
      <point x="254" y="32" type="line"/>
      <point x="301" y="32" type="line"/>
      <point x="420" y="566" type="line"/>
      <point x="415" y="574" type="line"/>
    </contour>
    <contour>
      <point x="24" y="249" type="line"/>
      <point x="20" y="205" type="line"/>
      <point x="26" y="200" type="line"/>
      <point x="456" y="200" type="line"/>
      <point x="460" y="243" type="line"/>
      <point x="455" y="249" type="line"/>
    </contour>
    <contour>
      <point x="206" y="574" type="line"/>
      <point x="86" y="39" type="line"/>
      <point x="91" y="32" type="line"/>
      <point x="138" y="32" type="line"/>
      <point x="257" y="566" type="line"/>
      <point x="252" y="574" type="line"/>
    </contour>
    <contour>
      <point x="59" y="414" type="line"/>
      <point x="55" y="371" type="line"/>
      <point x="61" y="365" type="line"/>
      <point x="491" y="365" type="line"/>
      <point x="495" y="408" type="line"/>
      <point x="490" y="414" type="line"/>
    </contour>
  </outline>
</glyph>
<glyph name="ampersand" format="1">
  <advance width="768"/>
  <unicode hex="0026"/>
  <outline>
    <contour>
      <point x="631" y="711" type="line"/>
      <point x="539" y="507"/>
      <point x="314" y="318"/>
      <point x="72" y="237" type="curve"/>
      <point x="94" y="186" type="line"/>
      <point x="337" y="268"/>
      <point x="590" y="478"/>
      <point x="670" y="656" type="curve"/>
      <point x="664" y="678"/>
      <point x="654" y="695"/>
      <point x="638" y="711" type="curve"/>
    </contour>
    <contour>
      <point x="130" y="505"/>
      <point x="43" y="406"/>
      <point x="43" y="254" type="curve" smooth="yes"/>
      <point x="43" y="92"/>
      <point x="141" y="-11"/>
      <point x="307" y="-11" type="curve" smooth="yes"/>
      <point x="491" y="-11"/>
      <point x="613" y="113"/>
      <point x="605" y="289" type="curve"/>
      <point x="597" y="294" type="line" smooth="yes"/>
      <point x="545" y="280" type="line"/>
      <point x="553" y="141"/>
      <point x="453" y="49"/>
      <point x="313" y="49" type="curve" smooth="yes"/>
      <point x="179" y="49"/>
      <point x="112" y="136"/>
      <point x="112" y="264" type="curve" smooth="yes"/>
      <point x="112" y="376"/>
      <point x="164" y="450"/>
      <point x="241" y="450" type="curve" smooth="yes"/>
      <point x="275" y="450"/>
      <point x="301" y="436"/>
      <point x="304" y="403" type="curve" smooth="yes"/>
      <point x="306" y="381"/>
      <point x="297" y="348"/>
      <point x="258" y="322" type="curve"/>
      <point x="319" y="329" type="line"/>
      <point x="347" y="355"/>
      <point x="356" y="390"/>
      <point x="356" y="414" type="curve" smooth="yes"/>
      <point x="356" y="466"/>
      <point x="315" y="505"/>
      <point x="243" y="505" type="curve" smooth="yes"/>
    </contour>
    <contour>
      <point x="397" y="204" type="line"/>
      <point x="406" y="205" type="line"/>
      <point x="427" y="248"/>
      <point x="454" y="267"/>
      <point x="489" y="267" type="curve"/>
      <point x="536" y="267"/>
      <point x="659" y="232"/>
      <point x="716" y="232" type="curve"/>
      <point x="768" y="236"/>
      <point x="797" y="262"/>
      <point x="824" y="310" type="curve"/>
      <point x="807" y="353" type="line"/>
      <point x="798" y="352" type="line"/>
      <point x="781" y="309"/>
      <point x="754" y="291"/>
      <point x="715" y="291" type="curve" smooth="yes"/>
      <point x="661" y="291"/>
      <point x="540" y="326"/>
      <point x="488" y="326" type="curve"/>
      <point x="437" y="321"/>
      <point x="407" y="297"/>
      <point x="381" y="248" type="curve"/>
    </contour>
  </outline>
</glyph>
<glyph name="parenleft" format="1">
  <advance width="288"/>
  <unicode hex="0028"/>
  <outline>
    <contour>
      <point x="246" y="662" type="line"/>
      <point x="129" y="577"/>
      <point x="83" y="462"/>
      <point x="82" y="256" type="curve" smooth="yes"/>
      <point x="83" y="57"/>
      <point x="129" y="-56"/>
      <point x="246" y="-141" type="curve"/>
      <point x="254" y="-141" type="line"/>
      <point x="283" y="-115" type="line"/>
      <point x="283" y="-107" type="line"/>
      <point x="185" y="-30"/>
      <point x="148" y="73"/>
      <point x="147" y="257" type="curve" smooth="yes"/>
      <point x="148" y="445"/>
      <point x="185" y="550"/>
      <point x="283" y="628" type="curve"/>
      <point x="283" y="636" type="line"/>
      <point x="254" y="662" type="line"/>
    </contour>
  </outline>
</glyph>
<glyph name="comma" format="1">
  <advance width="229"/>
  <unicode hex="002C"/>
  <outline>
    <contour>
      <point x="106" y="82"/>
      <point x="88" y="72"/>
      <point x="71" y="61" type="curve"/>
      <point x="71" y="53" type="line"/>
      <point x="91" y="40"/>
      <point x="102" y="24"/>
      <point x="102" y="6" type="curve"/>
      <point x="102" y="-24"/>
      <point x="83" y="-54"/>
      <point x="47" y="-82" type="curve"/>
      <point x="47" y="-89" type="line"/>
      <point x="74" y="-114" type="line"/>
      <point x="137" y="-68"/>
      <point x="169" y="-23"/>
      <point x="169" y="20" type="curve"/>
      <point x="169" y="48"/>
      <point x="154" y="70"/>
      <point x="127" y="87" type="curve"/>
    </contour>
  </outline>
</glyph>
<glyph name="zero" format="1">
  <advance width="528"/>
  <unicode hex="0030"/>
  <outline>
    <contour>
      <point x="128" y="504"/>
      <point x="47" y="410"/>
      <point x="47" y="242" type="curve" smooth="yes"/>
      <point x="47" y="83"/>
      <point x="124" y="-7"/>
      <point x="260" y="-7" type="curve" smooth="yes"/>
      <point x="402" y="-7"/>
      <point x="482" y="87"/>
      <point x="482" y="252" type="curve" smooth="yes"/>
      <point x="482" y="414"/>
      <point x="405" y="504"/>
      <point x="270" y="504" type="curve" smooth="yes"/>
    </contour>
    <contour>
      <point x="365" y="431"/>
      <point x="419" y="367"/>
      <point x="419" y="243" type="curve" smooth="yes"/>
      <point x="419" y="125"/>
      <point x="366" y="63"/>
      <point x="265" y="63" type="curve" smooth="yes"/>
      <point x="163" y="63"/>
      <point x="110" y="126"/>
      <point x="110" y="248" type="curve" smooth="yes"/>
      <point x="110" y="369"/>
      <point x="163" y="431"/>
      <point x="264" y="431" type="curve" smooth="yes"/>
    </contour>
  </outline>
</glyph>
<glyph name="one" format="1">
  <advance width="344"/>
  <unicode hex="0031"/>
  <outline>
    <contour>
      <point x="11" y="442" type="line"/>
      <point x="11" y="379" type="line"/>
      <point x="19" y="375" type="line"/>
      <point x="147" y="411" type="line"/>
      <point x="148" y="197" type="line"/>
      <point x="144" y="0" type="line"/>
      <point x="224" y="0" type="line"/>
      <point x="219" y="207" type="line"/>
      <point x="225" y="494" type="line"/>
      <point x="213" y="502" type="line"/>
    </contour>
  </outline>
</glyph>
<glyph name="greater" format="1">
  <advance width="480"/>
  <unicode hex="003E"/>
  <outline>
    <contour>
      <point x="38" y="417" type="line"/>
      <point x="42" y="410" type="line"/>
      <point x="382" y="269" type="line"/>
      <point x="382" y="263" type="line"/>
      <point x="40" y="131" type="line"/>
      <point x="52" y="85" type="line"/>
      <point x="61" y="80" type="line"/>
      <point x="443" y="232" type="line"/>
      <point x="443" y="297" type="line"/>
      <point x="437" y="306" type="line"/>
      <point x="56" y="463" type="line"/>
    </contour>
  </outline>
</glyph>
<glyph name="L" format="1">
  <advance width="416"/>
  <unicode hex="004C"/>
  <outline>
    <contour>
      <point x="90" y="641" type="line"/>
      <point x="95" y="193" type="line"/>
      <point x="90" y="0" type="line"/>
      <point x="171" y="0" type="line"/>
      <point x="167" y="200" type="line"/>
      <point x="172" y="641" type="line"/>
    </contour>
    <contour>
      <point x="140" y="67" type="line"/>
      <point x="137" y="7" type="line"/>
      <point x="140" y="0" type="line"/>
      <point x="406" y="0" type="line"/>
      <point x="413" y="60" type="line"/>
      <point x="407" y="67" type="line"/>
    </contour>
    <contour>
      <point x="235" y="0" type="move" name="bottom"/>
    </contour>
    <contour>
      <point x="204" y="641" type="move" name="top"/>
    </contour>
  </outline>
</glyph>
<glyph name="N" format="1">
  <advance width="683"/>
  <unicode hex="004E"/>
  <outline>
    <contour>
      <point x="515" y="637" type="line"/>
      <point x="516" y="128" type="line"/>
      <point x="510" y="128" type="line"/>
      <point x="179" y="641" type="line"/>
      <point x="95" y="641" type="line"/>
      <point x="98" y="190" type="line"/>
      <point x="93" y="0" type="line"/>
      <point x="169" y="0" type="line"/>
      <point x="165" y="211" type="line"/>
      <point x="166" y="513" type="line"/>
      <point x="173" y="513" type="line"/>
      <point x="503" y="0" type="line"/>
      <point x="587" y="0" type="line"/>
      <point x="585" y="188" type="line"/>
      <point x="591" y="643" type="line"/>
    </contour>
    <contour>
      <point x="338" y="0" type="move" name="bottom"/>
    </contour>
    <contour>
      <point x="339" y="641" type="move" name="top"/>
    </contour>
  </outline>
</glyph>
<glyph name="P" format="1">
  <advance width="520"/>
  <unicode hex="0050"/>
  <outline>
    <contour>
      <point x="94" y="641" type="line"/>
      <point x="136" y="572" type="line"/>
      <point x="271" y="576" type="line"/>
      <point x="357" y="573"/>
      <point x="403" y="533"/>
      <point x="403" y="447" type="curve" smooth="yes"/>
      <point x="403" y="357"/>
      <point x="359" y="303"/>
      <point x="277" y="290" type="curve"/>
      <point x="124" y="293" type="line"/>
      <point x="124" y="225" type="line"/>
      <point x="247" y="225" type="line"/>
      <point x="396" y="225"/>
      <point x="485" y="312"/>
      <point x="485" y="454" type="curve" smooth="yes"/>
      <point x="485" y="575"/>
      <point x="415" y="642"/>
      <point x="290" y="642" type="curve"/>
    </contour>
    <contour>
      <point x="93" y="641" type="line"/>
      <point x="98" y="193" type="line"/>
      <point x="93" y="0" type="line"/>
      <point x="174" y="0" type="line"/>
      <point x="170" y="200" type="line"/>
      <point x="175" y="641" type="line"/>
    </contour>
  </outline>
</glyph>
<glyph name="T" format="1">
  <advance width="490"/>
  <unicode hex="0054"/>
  <outline>
    <contour>
      <point x="205" y="631" type="line"/>
      <point x="210" y="193" type="line"/>
      <point x="205" y="0" type="line"/>
      <point x="286" y="0" type="line"/>
      <point x="282" y="200" type="line"/>
      <point x="287" y="631" type="line"/>
    </contour>
    <contour>
      <point x="29" y="641" type="line"/>
      <point x="22" y="579" type="line"/>
      <point x="28" y="571" type="line"/>
      <point x="142" y="577" type="line"/>
      <point x="351" y="577" type="line"/>
      <point x="463" y="571" type="line"/>
      <point x="469" y="633" type="line"/>
      <point x="464" y="641" type="line"/>
    </contour>
    <contour>
      <point x="240" y="0" type="move" name="bottom"/>
    </contour>
    <contour>
      <point x="248" y="321" type="move" name="center"/>
    </contour>
    <contour>
      <point x="248" y="641" type="move" name="top"/>
    </contour>
  </outline>
</glyph>
<glyph name="X" format="1">
  <advance width="589"/>
  <unicode hex="0058"/>
  <outline>
    <contour>
      <point x="457" y="641" type="line"/>
      <point x="431" y="591" type="line"/>
      <point x="292" y="385" type="line"/>
      <point x="154" y="590" type="line"/>
      <point x="128" y="641" type="line"/>
      <point x="31" y="641" type="line"/>
      <point x="240" y="324" type="line"/>
      <point x="23" y="0" type="line"/>
      <point x="108" y="0" type="line"/>
      <point x="134" y="47" type="line"/>
      <point x="287" y="271" type="line"/>
      <point x="435" y="52" type="line"/>
      <point x="463" y="0" type="line"/>
      <point x="560" y="0" type="line"/>
      <point x="341" y="334" type="line"/>
      <point x="544" y="641" type="line"/>
    </contour>
  </outline>
</glyph>
<glyph name="underscore" format="1">
  <advance width="450"/>
  <unicode hex="005F"/>
  <outline>
    <contour>
      <point x="-10" y="-88" type="line"/>
      <point x="-15" y="-134" type="line"/>
      <point x="-9" y="-141" type="line"/>
      <point x="460" y="-141" type="line"/>
      <point x="465" y="-94" type="line"/>
      <point x="459" y="-88" type="line"/>
    </contour>
  </outline>
</glyph>
<glyph name="a" format="1">
  <advance width="512"/>
  <unicode hex="0061"/>
  <outline>
    <contour>
      <point x="217" y="498" type="line"/>
      <point x="25" y="0" type="line" smooth="yes"/>
      <point x="99" y="0" type="line"/>
      <point x="113" y="58" type="line"/>
      <point x="255" y="425" type="line"/>
      <point x="261" y="425" type="line"/>
      <point x="391" y="54" type="line"/>
      <point x="403" y="0" type="line"/>
      <point x="479" y="0" type="line"/>
      <point x="303" y="498" type="line"/>
    </contour>
    <contour>
      <point x="252" y="188" type="line"/>
      <point x="117" y="189" type="line"/>
      <point x="115" y="128" type="line"/>
      <point x="246" y="129" type="line"/>
      <point x="386" y="128" type="line"/>
      <point x="384" y="189" type="line"/>
    </contour>
    <contour>
      <point x="491" y="8" type="move" name="ogonek"/>
    </contour>
    <contour>
      <point x="261" y="498" type="move" name="top"/>
    </contour>
  </outline>
</glyph>
<glyph name="c" format="1">
  <advance width="461"/>
  <unicode hex="0063"/>
  <outline>
    <contour>
      <point x="132" y="503"/>
      <point x="45" y="411"/>
      <point x="45" y="246" type="curve" smooth="yes"/>
      <point x="45" y="84"/>
      <point x="127" y="-6"/>
      <point x="273" y="-6" type="curve" smooth="yes"/>
      <point x="327" y="-6"/>
      <point x="372" y="7"/>
      <point x="416" y="31" type="curve"/>
      <point x="423" y="100" type="line"/>
      <point x="414" y="103" type="line"/>
      <point x="375" y="75"/>
      <point x="325" y="57"/>
      <point x="276" y="57" type="curve" smooth="yes"/>
      <point x="178" y="57"/>
      <point x="123" y="125"/>
      <point x="123" y="252" type="curve" smooth="yes"/>
      <point x="123" y="379"/>
      <point x="178" y="441"/>
      <point x="276" y="441" type="curve" smooth="yes"/>
      <point x="327" y="441"/>
      <point x="372" y="424"/>
      <point x="405" y="396" type="curve"/>
      <point x="414" y="399" type="line"/>
      <point x="428" y="468" type="line"/>
      <point x="388" y="491"/>
      <point x="339" y="503"/>
      <point x="284" y="503" type="curve" smooth="yes"/>
    </contour>
    <contour>
      <point x="266" y="0" type="move" name="bottom"/>
    </contour>
    <contour>
      <point x="264" y="498" type="move" name="top"/>
    </contour>
  </outline>
</glyph>
<glyph name="d" format="1">
  <advance width="566"/>
  <unicode hex="0064"/>
  <outline>
    <contour>
      <point x="90" y="498" type="line"/>
      <point x="154" y="434" type="line"/>
      <point x="179" y="436"/>
      <point x="261" y="439"/>
      <point x="280" y="439" type="curve" smooth="yes"/>
      <point x="388" y="439"/>
      <point x="444" y="380"/>
      <point x="444" y="251" type="curve" smooth="yes"/>
      <point x="444" y="118"/>
      <point x="382" y="56"/>
      <point x="277" y="56" type="curve" smooth="yes"/>
      <point x="256" y="56"/>
      <point x="178" y="60"/>
      <point x="151" y="63" type="curve"/>
      <point x="90" y="0" type="line"/>
      <point x="138" y="-3"/>
      <point x="231" y="-5"/>
      <point x="265" y="-5" type="curve"/>
      <point x="429" y="-5"/>
      <point x="521" y="92"/>
      <point x="521" y="266" type="curve" smooth="yes"/>
      <point x="521" y="417"/>
      <point x="437" y="502"/>
      <point x="285" y="502" type="curve"/>
    </contour>
    <contour>
      <point x="90" y="498" type="line"/>
      <point x="93" y="150" type="line"/>
      <point x="90" y="0" type="line"/>
      <point x="165" y="0" type="line"/>
      <point x="162" y="156" type="line"/>
      <point x="166" y="498" type="line"/>
    </contour>
    <contour>
      <point x="269" y="250" type="move" name="center"/>
    </contour>
    <contour>
      <point x="267" y="498" type="move" name="top"/>
    </contour>
  </outline>
</glyph>
<glyph name="e" format="1">
  <advance width="435"/>
  <unicode hex="0065"/>
  <outline>
    <contour>
      <point x="90" y="498" type="line"/>
      <point x="93" y="150" type="line"/>
      <point x="90" y="0" type="line"/>
      <point x="165" y="0" type="line"/>
      <point x="162" y="156" type="line"/>
      <point x="166" y="498" type="line"/>
    </contour>
    <contour>
      <point x="260" y="60" type="line"/>
      <point x="140" y="61" type="line"/>
      <point x="138" y="6" type="line"/>
      <point x="140" y="0" type="line"/>
      <point x="393" y="0" type="line"/>
      <point x="400" y="58" type="line"/>
      <point x="394" y="64" type="line"/>
    </contour>
    <contour>
      <point x="263" y="285" type="line"/>
      <point x="144" y="286" type="line"/>
      <point x="142" y="230" type="line"/>
      <point x="144" y="224" type="line"/>
      <point x="256" y="225" type="line"/>
      <point x="349" y="222" type="line"/>
      <point x="354" y="281" type="line"/>
      <point x="350" y="288" type="line"/>
    </contour>
    <contour>
      <point x="140" y="498" type="line"/>
      <point x="138" y="442" type="line"/>
      <point x="140" y="437" type="line"/>
      <point x="268" y="438" type="line"/>
      <point x="394" y="434" type="line"/>
      <point x="400" y="492" type="line"/>
      <point x="395" y="498" type="line"/>
    </contour>
    <contour>
      <point x="245" y="0" type="move" name="bottom"/>
    </contour>
    <contour>
      <point x="401" y="8" type="move" name="ogonek"/>
    </contour>
    <contour>
      <point x="242" y="498" type="move" name="top"/>
    </contour>
  </outline>
</glyph>
<glyph name="f" format="1">
  <advance width="387"/>
  <unicode hex="0066"/>
  <outline>
    <contour>
      <point x="85" y="498" type="line"/>
      <point x="88" y="150" type="line"/>
      <point x="85" y="0" type="line"/>
      <point x="160" y="0" type="line"/>
      <point x="157" y="156" type="line"/>
      <point x="161" y="498" type="line"/>
    </contour>
    <contour>
      <point x="244" y="272" type="line"/>
      <point x="138" y="273" type="line"/>
      <point x="138" y="211" type="line"/>
      <point x="238" y="212" type="line"/>
      <point x="332" y="211" type="line"/>
      <point x="337" y="268" type="line"/>
      <point x="332" y="275" type="line"/>
    </contour>
    <contour>
      <point x="135" y="498" type="line"/>
      <point x="133" y="442" type="line"/>
      <point x="135" y="437" type="line"/>
      <point x="250" y="438" type="line"/>
      <point x="373" y="434" type="line"/>
      <point x="379" y="492" type="line"/>
      <point x="374" y="498" type="line"/>
    </contour>
  </outline>
</glyph>
<glyph name="h" format="1">
  <advance width="596"/>
  <unicode hex="0068"/>
  <outline>
    <contour>
      <point x="432" y="498" type="line"/>
      <point x="435" y="150" type="line"/>
      <point x="432" y="0" type="line"/>
      <point x="507" y="0" type="line"/>
      <point x="504" y="156" type="line"/>
      <point x="508" y="498" type="line"/>
    </contour>
    <contour>
      <point x="90" y="498" type="line"/>
      <point x="93" y="150" type="line"/>
      <point x="90" y="0" type="line"/>
      <point x="165" y="0" type="line"/>
      <point x="162" y="156" type="line"/>
      <point x="166" y="498" type="line"/>
    </contour>
    <contour>
      <point x="153" y="217" type="line"/>
      <point x="293" y="218" type="line"/>
      <point x="443" y="218" type="line"/>
      <point x="443" y="284" type="line"/>
      <point x="298" y="283" type="line"/>
      <point x="153" y="284" type="line"/>
    </contour>
    <contour>
      <point x="279" y="250" type="move" name="center"/>
    </contour>
    <contour>
      <point x="299" y="498" type="move" name="top"/>
    </contour>
  </outline>
</glyph>
<glyph name="l" format="1">
  <advance width="377"/>
  <unicode hex="006C"/>
  <outline>
    <contour>
      <point x="88" y="498" type="line"/>
      <point x="91" y="150" type="line"/>
      <point x="88" y="0" type="line"/>
      <point x="163" y="0" type="line"/>
      <point x="160" y="156" type="line"/>
      <point x="164" y="498" type="line"/>
    </contour>
    <contour>
      <point x="133" y="63" type="line"/>
      <point x="130" y="6" type="line"/>
      <point x="133" y="0" type="line"/>
      <point x="352" y="0" type="line"/>
      <point x="358" y="56" type="line"/>
      <point x="353" y="63" type="line"/>
    </contour>
    <contour>
      <point x="192" y="0" type="move" name="bottom"/>
    </contour>
    <contour>
      <point x="168" y="498" type="move" name="top"/>
    </contour>
  </outline>
</glyph>
<glyph name="m" format="1">
  <advance width="683"/>
  <unicode hex="006D"/>
  <outline>
    <contour>
      <point x="485" y="498" type="line"/>
      <point x="458" y="427" type="line"/>
      <point x="344" y="155" type="line"/>
      <point x="338" y="155" type="line"/>
      <point x="230" y="423" type="line"/>
      <point x="204" y="498" type="line"/>
      <point x="117" y="498" type="line"/>
      <point x="62" y="0" type="line"/>
      <point x="126" y="0" type="line"/>
      <point x="140" y="158" type="line"/>
      <point x="166" y="382" type="line"/>
      <point x="173" y="382" type="line"/>
      <point x="307" y="56" type="line"/>
      <point x="367" y="56" type="line"/>
      <point x="509" y="382" type="line"/>
      <point x="515" y="382" type="line"/>
      <point x="542" y="152" type="line"/>
      <point x="554" y="0" type="line"/>
      <point x="620" y="0" type="line"/>
      <point x="569" y="498" type="line"/>
    </contour>
  </outline>
</glyph>
<glyph name="o" format="1">
  <advance width="557"/>
  <unicode hex="006F"/>
  <outline>
    <contour>
      <point x="131" y="504"/>
      <point x="45" y="410"/>
      <point x="45" y="245" type="curve" smooth="yes"/>
      <point x="45" y="84"/>
      <point x="127" y="-7"/>
      <point x="271" y="-7" type="curve" smooth="yes"/>
      <point x="425" y="-7"/>
      <point x="512" y="89"/>
      <point x="512" y="259" type="curve" smooth="yes"/>
      <point x="512" y="415"/>
      <point x="431" y="504"/>
      <point x="286" y="504" type="curve"/>
    </contour>
    <contour>
      <point x="384" y="441"/>
      <point x="435" y="382"/>
      <point x="435" y="246" type="curve" smooth="yes"/>
      <point x="435" y="114"/>
      <point x="382" y="56"/>
      <point x="277" y="56" type="curve" smooth="yes"/>
      <point x="174" y="56"/>
      <point x="123" y="114"/>
      <point x="123" y="254" type="curve" smooth="yes"/>
      <point x="123" y="384"/>
      <point x="175" y="441"/>
      <point x="279" y="441" type="curve" smooth="yes"/>
    </contour>
    <contour>
      <point x="280" y="498" type="move" name="top"/>
    </contour>
  </outline>
</glyph>
<glyph name="s" format="1">
  <advance width="425"/>
  <unicode hex="0073"/>
  <outline>
    <contour>
      <point x="129" y="503"/>
      <point x="62" y="440"/>
      <point x="62" y="361" type="curve" smooth="yes"/>
      <point x="62" y="212"/>
      <point x="299" y="229"/>
      <point x="299" y="129" type="curve" smooth="yes"/>
      <point x="299" y="88"/>
      <point x="261" y="52"/>
      <point x="203" y="52" type="curve" smooth="yes"/>
      <point x="162" y="52"/>
      <point x="106" y="72"/>
      <point x="68" y="111" type="curve"/>
      <point x="58" y="107" type="line"/>
      <point x="49" y="28" type="line"/>
      <point x="96" y="4"/>
      <point x="150" y="-6"/>
      <point x="194" y="-6" type="curve" smooth="yes"/>
      <point x="310" y="-6"/>
      <point x="373" y="65"/>
      <point x="373" y="141" type="curve" smooth="yes"/>
      <point x="373" y="290"/>
      <point x="136" y="274"/>
      <point x="136" y="371" type="curve" smooth="yes"/>
      <point x="136" y="406"/>
      <point x="168" y="445"/>
      <point x="229" y="445" type="curve" smooth="yes"/>
      <point x="265" y="445"/>
      <point x="297" y="432"/>
      <point x="334" y="402" type="curve"/>
      <point x="346" y="405" type="line"/>
      <point x="358" y="479" type="line"/>
      <point x="318" y="495"/>
      <point x="274" y="503"/>
      <point x="237" y="503" type="curve" smooth="yes"/>
    </contour>
    <contour>
      <point x="196" y="0" type="move" name="bottom"/>
    </contour>
    <contour>
      <point x="213" y="498" type="move" name="top"/>
    </contour>
  </outline>
</glyph>
<glyph name="x" format="1">
  <advance width="520"/>
  <unicode hex="0078"/>
  <outline>
    <contour>
      <point x="390" y="498" type="line"/>
      <point x="369" y="457" type="line"/>
      <point x="260" y="307" type="line"/>
      <point x="152" y="456" type="line"/>
      <point x="130" y="498" type="line"/>
      <point x="38" y="498" type="line"/>
      <point x="211" y="250" type="line"/>
      <point x="33" y="0" type="line"/>
      <point x="112" y="0" type="line"/>
      <point x="133" y="39" type="line"/>
      <point x="255" y="202" type="line"/>
      <point x="371" y="43" type="line"/>
      <point x="393" y="0" type="line"/>
      <point x="484" y="0" type="line"/>
      <point x="305" y="260" type="line"/>
      <point x="472" y="498" type="line"/>
    </contour>
  </outline>
</glyph>
<glyph name="z" format="1">
  <advance width="470"/>
  <unicode hex="007A"/>
  <outline>
    <contour>
      <point x="377" y="498" type="line"/>
      <point x="145" y="498" type="line"/>
      <point x="54" y="499" type="line"/>
      <point x="48" y="436" type="line"/>
      <point x="52" y="430" type="line"/>
      <point x="129" y="438" type="line"/>
      <point x="331" y="438" type="line"/>
      <point x="40" y="52" type="line"/>
      <point x="40" y="-2" type="line"/>
      <point x="90" y="0" type="line"/>
      <point x="316" y="0" type="line"/>
      <point x="419" y="-2" type="line"/>
      <point x="426" y="62" type="line"/>
      <point x="422" y="67" type="line"/>
      <point x="339" y="59" type="line"/>
      <point x="130" y="59" type="line"/>
      <point x="420" y="443" type="line"/>
      <point x="420" y="499" type="line"/>
    </contour>
    <contour>
      <point x="221" y="498" type="move" name="top"/>
    </contour>
  </outline>
</glyph>
<glyph name="cent" format="1">
  <advance width="383"/>
  <unicode hex="00A2"/>
  <outline>
    <contour>
      <point x="114" y="507"/>
      <point x="39" y="415"/>
      <point x="39" y="266" type="curve" smooth="yes"/>
      <point x="39" y="126"/>
      <point x="111" y="36"/>
      <point x="226" y="36" type="curve" smooth="yes"/>
      <point x="274" y="36"/>
      <point x="322" y="52"/>
      <point x="358" y="73" type="curve"/>
      <point x="364" y="121" type="line"/>
      <point x="357" y="125" type="line"/>
      <point x="322" y="104"/>
      <point x="278" y="90"/>
      <point x="239" y="90" type="curve" smooth="yes"/>
      <point x="153" y="90"/>
      <point x="101" y="158"/>
      <point x="101" y="272" type="curve" smooth="yes"/>
      <point x="101" y="384"/>
      <point x="153" y="453"/>
      <point x="236" y="453" type="curve" smooth="yes"/>
      <point x="274" y="453"/>
      <point x="313" y="438"/>
      <point x="341" y="419" type="curve"/>
      <point x="350" y="420" type="line"/>
      <point x="362" y="471" type="line"/>
      <point x="329" y="492"/>
      <point x="281" y="507"/>
      <point x="236" y="507" type="curve" smooth="yes"/>
    </contour>
    <contour>
      <point x="184" y="66" type="line"/>
      <point x="170" y="-112" type="line"/>
      <point x="178" y="-119" type="line"/>
      <point x="216" y="-119" type="line"/>
      <point x="231" y="66" type="line"/>
    </contour>
    <contour>
      <point x="216" y="477" type="line"/>
      <point x="184" y="66" type="line"/>
      <point x="231" y="66" type="line"/>
      <point x="264" y="477" type="line"/>
    </contour>
    <contour>
      <point x="229" y="652" type="line"/>
      <point x="216" y="477" type="line"/>
      <point x="263" y="477" type="line"/>
      <point x="276" y="644" type="line"/>
      <point x="269" y="652" type="line"/>
    </contour>
  </outline>
</glyph>
<glyph name="degree" format="1">
  <advance width="293"/>
  <unicode hex="00B0"/>
  <outline>
    <contour>
      <point x="76" y="647"/>
      <point x="20" y="593"/>
      <point x="20" y="523" type="curve" smooth="yes"/>
      <point x="20" y="453"/>
      <point x="76" y="398"/>
      <point x="147" y="398" type="curve" smooth="yes"/>
      <point x="216" y="398"/>
      <point x="272" y="453"/>
      <point x="272" y="523" type="curve" smooth="yes"/>
      <point x="272" y="593"/>
      <point x="216" y="647"/>
      <point x="147" y="647" type="curve" smooth="yes"/>
    </contour>
    <contour>
      <point x="194" y="608"/>
      <point x="233" y="570"/>
      <point x="233" y="523" type="curve" smooth="yes"/>
      <point x="233" y="476"/>
      <point x="194" y="438"/>
      <point x="147" y="438" type="curve" smooth="yes"/>
      <point x="100" y="438"/>
      <point x="60" y="476"/>
      <point x="60" y="523" type="curve" smooth="yes"/>
      <point x="60" y="570"/>
      <point x="100" y="608"/>
      <point x="147" y="608" type="curve" smooth="yes"/>
    </contour>
  </outline>
</glyph>
<glyph name="paragraph" format="1">
  <advance width="485"/>
  <unicode hex="00B6"/>
  <outline>
    <contour>
      <point x="256" y="641" type="line" smooth="yes"/>
      <point x="116" y="641"/>
      <point x="38" y="568"/>
      <point x="38" y="443" type="curve" smooth="yes"/>
      <point x="38" y="326"/>
      <point x="108" y="254"/>
      <point x="229" y="230" type="curve"/>
      <point x="255" y="275" type="line"/>
      <point x="168" y="301"/>
      <point x="121" y="358"/>
      <point x="121" y="440" type="curve" smooth="yes"/>
      <point x="121" y="522"/>
      <point x="164" y="572"/>
      <point x="242" y="579" type="curve"/>
      <point x="300" y="579" type="line"/>
      <point x="302" y="170" type="line"/>
      <point x="302" y="124" type="line" smooth="yes"/>
      <point x="302" y="61"/>
      <point x="270" y="15"/>
      <point x="194" y="-31" type="curve"/>
      <point x="194" y="-41" type="line"/>
      <point x="217" y="-77" type="line"/>
      <point x="333" y="-20"/>
      <point x="377" y="42"/>
      <point x="377" y="129" type="curve" smooth="yes"/>
      <point x="376" y="183" type="line"/>
      <point x="379" y="578" type="line"/>
      <point x="452" y="578" type="line"/>
      <point x="459" y="633" type="line"/>
      <point x="452" y="641" type="line"/>
    </contour>
  </outline>
</glyph>
<glyph name="Aogonek" format="1">
  <advance width="578"/>
  <unicode hex="0104"/>
  <outline>
    <contour>
      <point x="488" y="0" type="line"/>
      <point x="446" y="-60"/>
      <point x="434" y="-89"/>
      <point x="434" y="-119" type="curve" smooth="yes"/>
      <point x="434" y="-167"/>
      <point x="465" y="-197"/>
      <point x="511" y="-197" type="curve" smooth="yes"/>
      <point x="548" y="-197"/>
      <point x="580" y="-178"/>
      <point x="611" y="-144" type="curve"/>
      <point x="600" y="-106" type="line"/>
      <point x="595" y="-106" type="line"/>
      <point x="572" y="-129"/>
      <point x="546" y="-143"/>
      <point x="521" y="-143" type="curve" smooth="yes"/>
      <point x="498" y="-143"/>
      <point x="487" y="-132"/>
      <point x="487" y="-108" type="curve" smooth="yes"/>
      <point x="487" y="-85"/>
      <point x="498" y="-58"/>
      <point x="538" y="1" type="curve"/>
    </contour>
    <component base="A"/>
  </outline>
</glyph>
<glyph name="aogonek" format="1">
  <advance width="512"/>
  <unicode hex="0105"/>
  <outline>
    <contour>
      <point x="416" y="1" type="line"/>
      <point x="374" y="-64"/>
      <point x="361" y="-95"/>
      <point x="361" y="-123" type="curve" smooth="yes"/>
      <point x="361" y="-169"/>
      <point x="394" y="-196"/>
      <point x="435" y="-196" type="curve" smooth="yes"/>
      <point x="468" y="-196"/>
      <point x="494" y="-177"/>
      <point x="521" y="-143" type="curve"/>
      <point x="510" y="-99" type="line"/>
      <point x="505" y="-99" type="line"/>
      <point x="487" y="-126"/>
      <point x="468" y="-141"/>
      <point x="445" y="-141" type="curve" smooth="yes"/>
      <point x="428" y="-141"/>
      <point x="415" y="-134"/>
      <point x="415" y="-108" type="curve" smooth="yes"/>
      <point x="415" y="-90"/>
      <point x="421" y="-63"/>
      <point x="467" y="1" type="curve"/>
    </contour>
    <component base="a"/>
  </outline>
</glyph>
<glyph name="Lslash" format="1">
  <advance width="429"/>
  <unicode hex="0141"/>
  <outline>
    <contour>
      <point x="10" y="303" type="line"/>
      <point x="25" y="255" type="line"/>
      <point x="35" y="250" type="line"/>
      <point x="337" y="411" type="line"/>
      <point x="322" y="458" type="line"/>
      <point x="313" y="462" type="line"/>
    </contour>
    <component base="L" xOffset="14"/>
  </outline>
</glyph>
<glyph name="lslash" format="1">
  <advance width="396"/>
  <unicode hex="0142"/>
  <outline>
    <contour>
      <point x="21" y="238" type="line"/>
      <point x="33" y="194" type="line"/>
      <point x="42" y="189" type="line"/>
      <point x="298" y="310" type="line"/>
      <point x="285" y="355" type="line"/>
      <point x="278" y="358" type="line"/>
    </contour>
    <component base="l" xOffset="16"/>
  </outline>
</glyph>
<glyph name="tcedilla" format="1">
  <advance width="437"/>
  <unicode hex="0163"/>
  <outline>
    <contour>
      <point x="200" y="11" type="line"/>
      <point x="179" y="-69" type="line"/>
      <point x="226" y="-98" type="line" smooth="yes"/>
      <point x="238" y="-106"/>
      <point x="246" y="-113"/>
      <point x="246" y="-126" type="curve" smooth="yes"/>
      <point x="246" y="-142"/>
      <point x="233" y="-153"/>
      <point x="214" y="-153" type="curve" smooth="yes"/>
      <point x="191" y="-153"/>
      <point x="175" y="-140"/>
      <point x="160" y="-122" type="curve"/>
      <point x="155" y="-123" type="line"/>
      <point x="147" y="-160" type="line"/>
      <point x="162" y="-176"/>
      <point x="185" y="-192"/>
      <point x="218" y="-192" type="curve" smooth="yes"/>
      <point x="262" y="-192"/>
      <point x="295" y="-165"/>
      <point x="295" y="-127" type="curve" smooth="yes"/>
      <point x="295" y="-104"/>
      <point x="284" y="-88"/>
      <point x="258" y="-71" type="curve" smooth="yes"/>
      <point x="225" y="-52" type="line"/>
      <point x="242" y="11" type="line"/>
    </contour>
    <component base="t" xOffset="-2"/>
  </outline>
</glyph>
<glyph name="tbar" format="1">
  <advance width="437"/>
  <unicode hex="0167"/>
  <outline>
    <contour>
      <point x="91" y="255" type="line"/>
      <point x="87" y="211" type="line"/>
      <point x="93" y="205" type="line"/>
      <point x="352" y="205" type="line"/>
      <point x="356" y="250" type="line"/>
      <point x="349" y="255" type="line"/>
    </contour>
    <component base="t"/>
  </outline>
</glyph>
<glyph name="uogonek" format="1">
  <advance width="549"/>
  <unicode hex="0173"/>
  <outline>
    <contour>
      <point x="357" y="54" type="line"/>
      <point x="289" y="-51" type="line" smooth="yes"/>
      <point x="273" y="-75"/>
      <point x="267" y="-97"/>
      <point x="267" y="-118" type="curve" smooth="yes"/>
      <point x="267" y="-165"/>
      <point x="298" y="-197"/>
      <point x="345" y="-197" type="curve" smooth="yes"/>
      <point x="381" y="-197"/>
      <point x="413" y="-178"/>
      <point x="444" y="-144" type="curve"/>
      <point x="432" y="-106" type="line"/>
      <point x="428" y="-106" type="line"/>
      <point x="404" y="-132"/>
      <point x="378" y="-144"/>
      <point x="355" y="-144" type="curve" smooth="yes"/>
      <point x="330" y="-144"/>
      <point x="318" y="-131"/>
      <point x="318" y="-110" type="curve" smooth="yes"/>
      <point x="318" y="-96"/>
      <point x="324" y="-77"/>
      <point x="335" y="-60" type="curve" smooth="yes"/>
      <point x="406" y="55" type="line"/>
    </contour>
    <component base="u"/>
  </outline>
</glyph>
<glyph name="Omega" format="1">
  <advance width="744"/>
  <unicode hex="03A9"/>
  <outline>
    <contour>
      <point x="187" y="647"/>
      <point x="89" y="512"/>
      <point x="89" y="357" type="curve" smooth="yes"/>
      <point x="89" y="251"/>
      <point x="135" y="141"/>
      <point x="225" y="66" type="curve"/>
      <point x="224" y="62" type="line"/>
      <point x="134" y="62" type="line"/>
      <point x="47" y="68" type="line"/>
      <point x="37" y="4" type="line"/>
      <point x="43" y="-3" type="line"/>
      <point x="131" y="0" type="line"/>
      <point x="277" y="0" type="line"/>
      <point x="316" y="-2" type="line"/>
      <point x="320" y="2" type="line"/>
      <point x="320" y="66" type="line"/>
      <point x="225" y="136"/>
      <point x="172" y="255"/>
      <point x="172" y="363" type="curve" smooth="yes"/>
      <point x="172" y="484"/>
      <point x="235" y="582"/>
      <point x="371" y="582" type="curve" smooth="yes"/>
      <point x="507" y="582"/>
      <point x="572" y="483"/>
      <point x="572" y="362" type="curve" smooth="yes"/>
      <point x="572" y="254"/>
      <point x="519" y="136"/>
      <point x="422" y="66" type="curve"/>
      <point x="422" y="2" type="line"/>
      <point x="426" y="-2" type="line"/>
      <point x="465" y="0" type="line"/>
      <point x="597" y="0" type="line"/>
      <point x="696" y="-4" type="line"/>
      <point x="705" y="63" type="line"/>
      <point x="701" y="69" type="line"/>
      <point x="619" y="62" type="line"/>
      <point x="518" y="62" type="line"/>
      <point x="517" y="66" type="line"/>
      <point x="608" y="144"/>
      <point x="654" y="259"/>
      <point x="654" y="367" type="curve" smooth="yes"/>
      <point x="654" y="517"/>
      <point x="567" y="647"/>
      <point x="379" y="647" type="curve" smooth="yes"/>
    </contour>
    <contour>
      <point x="20" y="641" type="move" name="topleft"/>
    </contour>
  </outline>
</glyph>
<glyph name="emdash" format="1">
  <advance width="929"/>
  <unicode hex="2014"/>
  <outline>
    <contour>
      <point x="-10" y="284" type="line"/>
      <point x="-15" y="234" type="line"/>
      <point x="-9" y="228" type="line"/>
      <point x="942" y="228" type="line"/>
      <point x="947" y="277" type="line"/>
      <point x="940" y="284" type="line"/>
    </contour>
  </outline>
</glyph>
<glyph name="dagger" format="1">
  <advance width="482"/>
  <unicode hex="2020"/>
  <outline>
    <contour>
      <point x="212" y="585" type="line"/>
      <point x="212" y="283" type="line"/>
      <point x="212" y="-87" type="line"/>
      <point x="218" y="-94" type="line"/>
      <point x="268" y="-91" type="line"/>
      <point x="268" y="287" type="line"/>
      <point x="269" y="585" type="line"/>
      <point x="265" y="590" type="line"/>
    </contour>
    <contour>
      <point x="47" y="403" type="line"/>
      <point x="42" y="354" type="line"/>
      <point x="48" y="348" type="line"/>
      <point x="436" y="348" type="line"/>
      <point x="440" y="397" type="line"/>
      <point x="434" y="403" type="line"/>
    </contour>
  </outline>
</glyph>
<glyph name="guilsinglright" format="1">
  <advance width="235"/>
  <unicode hex="203A"/>
  <outline>
    <contour>
      <point x="28" y="385" type="line"/>
      <point x="27" y="376" type="line"/>
      <point x="151" y="227" type="line"/>
      <point x="27" y="78" type="line"/>
      <point x="28" y="68" type="line"/>
      <point x="66" y="46" type="line"/>
      <point x="211" y="220" type="line"/>
      <point x="211" y="236" type="line"/>
      <point x="66" y="407" type="line"/>
    </contour>
  </outline>
</glyph>
<glyph name="trademark" format="1">
  <advance width="582"/>
  <unicode hex="2122"/>
  <outline>
    <contour>
      <point x="453" y="640" type="line"/>
      <point x="441" y="605" type="line"/>
      <point x="391" y="488" type="line"/>
      <point x="388" y="488" type="line"/>
      <point x="343" y="605" type="line"/>
      <point x="331" y="640" type="line"/>
      <point x="279" y="640" type="line"/>
      <point x="253" y="405" type="line"/>
      <point x="291" y="405" type="line"/>
      <point x="297" y="481" type="line"/>
      <point x="309" y="573" type="line"/>
      <point x="311" y="573" type="line"/>
      <point x="370" y="430" type="line"/>
      <point x="405" y="430" type="line"/>
      <point x="468" y="573" type="line"/>
      <point x="472" y="573" type="line"/>
      <point x="482" y="476" type="line"/>
      <point x="487" y="405" type="line"/>
      <point x="526" y="405" type="line"/>
      <point x="503" y="640" type="line"/>
    </contour>
    <contour>
      <point x="99" y="634" type="line"/>
      <point x="100" y="475" type="line"/>
      <point x="98" y="405" type="line"/>
      <point x="142" y="405" type="line"/>
      <point x="140" y="479" type="line"/>
      <point x="142" y="634" type="line"/>
    </contour>
    <contour>
      <point x="30" y="640" type="line"/>
      <point x="27" y="607" type="line"/>
      <point x="30" y="604" type="line"/>
      <point x="77" y="606" type="line"/>
      <point x="162" y="606" type="line"/>
      <point x="208" y="604" type="line"/>
      <point x="211" y="636" type="line"/>
      <point x="208" y="640" type="line"/>
    </contour>
  </outline>
</glyph>
<glyph name="arrowdown" format="1">
  <advance width="516"/>
  <unicode hex="2193"/>
  <outline>
    <contour>
      <point x="437" y="234" type="line"/>
      <point x="258" y="61" type="line"/>
      <point x="79" y="234" type="line"/>
      <point x="67" y="234" type="line"/>
      <point x="54" y="190" type="line"/>
      <point x="252" y="-4" type="line"/>
      <point x="265" y="-4" type="line"/>
      <point x="462" y="190" type="line"/>
      <point x="449" y="234" type="line"/>
    </contour>
    <contour>
      <point x="229" y="458" type="line"/>
      <point x="233" y="43" type="line"/>
      <point x="283" y="43" type="line"/>
      <point x="286" y="460" type="line"/>
      <point x="235" y="464" type="line"/>
    </contour>
  </outline>
</glyph>
<glyph name="partialdiff" format="1">
  <advance width="511"/>
  <unicode hex="2202"/>
  <outline>
    <contour>
      <point x="117" y="716" type="line"/>
      <point x="65" y="677" type="line"/>
      <point x="65" y="667" type="line"/>
      <point x="283" y="592"/>
      <point x="395" y="459"/>
      <point x="395" y="255" type="curve"/>
      <point x="395" y="122"/>
      <point x="345" y="51"/>
      <point x="248" y="51" type="curve"/>
      <point x="159" y="51"/>
      <point x="111" y="106"/>
      <point x="111" y="206" type="curve"/>
      <point x="111" y="307"/>
      <point x="160" y="360"/>
      <point x="251" y="360" type="curve"/>
      <point x="300" y="360"/>
      <point x="352" y="335"/>
      <point x="400" y="291" type="curve"/>
      <point x="388" y="389" type="line"/>
      <point x="370" y="374" type="line"/>
      <point x="330" y="402"/>
      <point x="283" y="421"/>
      <point x="238" y="423" type="curve"/>
      <point x="109" y="423"/>
      <point x="37" y="335"/>
      <point x="37" y="207" type="curve"/>
      <point x="37" y="79"/>
      <point x="108" y="-8"/>
      <point x="246" y="-8" type="curve"/>
      <point x="389" y="-8"/>
      <point x="470" y="92"/>
      <point x="470" y="259" type="curve"/>
      <point x="470" y="472"/>
      <point x="343" y="625"/>
      <point x="125" y="716" type="curve"/>
    </contour>
  </outline>
</glyph>
<glyph name="infinity" format="1">
  <advance width="480"/>
  <unicode hex="221E"/>
  <outline>
    <contour>
      <point x="295" y="403"/>
      <point x="258" y="356"/>
      <point x="238" y="318" type="curve"/>
      <point x="212" y="364"/>
      <point x="178" y="403"/>
      <point x="116" y="403" type="curve" smooth="yes"/>
      <point x="43" y="403"/>
      <point x="-5" y="351"/>
      <point x="-5" y="265" type="curve" smooth="yes"/>
      <point x="-5" y="182"/>
      <point x="42" y="127"/>
      <point x="118" y="127" type="curve" smooth="yes"/>
      <point x="180" y="127"/>
      <point x="217" y="165"/>
      <point x="243" y="217" type="curve"/>
      <point x="272" y="164"/>
      <point x="305" y="127"/>
      <point x="365" y="127" type="curve" smooth="yes"/>
      <point x="436" y="127"/>
      <point x="485" y="175"/>
      <point x="485" y="262" type="curve" smooth="yes"/>
      <point x="485" y="344"/>
      <point x="440" y="403"/>
      <point x="363" y="403" type="curve" smooth="yes"/>
    </contour>
    <contour>
      <point x="171" y="351"/>
      <point x="196" y="315"/>
      <point x="216" y="272" type="curve"/>
      <point x="194" y="224"/>
      <point x="169" y="180"/>
      <point x="117" y="180" type="curve" smooth="yes"/>
      <point x="72" y="180"/>
      <point x="42" y="213"/>
      <point x="42" y="266" type="curve" smooth="yes"/>
      <point x="42" y="318"/>
      <point x="71" y="351"/>
      <point x="120" y="351" type="curve" smooth="yes"/>
    </contour>
    <contour>
      <point x="410" y="349"/>
      <point x="437" y="313"/>
      <point x="437" y="262" type="curve" smooth="yes"/>
      <point x="437" y="208"/>
      <point x="407" y="177"/>
      <point x="362" y="177" type="curve" smooth="yes"/>
      <point x="312" y="177"/>
      <point x="286" y="215"/>
      <point x="264" y="260" type="curve"/>
      <point x="282" y="304"/>
      <point x="306" y="349"/>
      <point x="361" y="349" type="curve" smooth="yes"/>
    </contour>
  </outline>
</glyph>
<glyph name="notequal" format="1">
  <advance width="480"/>
  <unicode hex="2260"/>
  <outline>
    <contour>
      <point x="262" y="518" type="line"/>
      <point x="142" y="11" type="line"/>
      <point x="147" y="5" type="line"/>
      <point x="198" y="5" type="line"/>
      <point x="319" y="511" type="line"/>
      <point x="313" y="518" type="line"/>
    </contour>
    <component base="equal"/>
  </outline>
</glyph>
<glyph name="lozenge" format="1">
  <advance width="497"/>
  <unicode hex="25CA"/>
  <outline>
    <contour>
      <point x="212" y="641" type="line"/>
      <point x="54" y="293" type="line"/>
      <point x="54" y="268" type="line"/>
      <point x="213" y="-78" type="line"/>
      <point x="220" y="-81" type="line"/>
      <point x="280" y="-80" type="line"/>
      <point x="438" y="269" type="line"/>
      <point x="438" y="294" type="line"/>
      <point x="278" y="640" type="line"/>
      <point x="273" y="644" type="line"/>
    </contour>
    <contour>
      <point x="383" y="281" type="line"/>
      <point x="249" y="-16" type="line"/>
      <point x="244" y="-16" type="line"/>
      <point x="107" y="278" type="line"/>
      <point x="240" y="578" type="line"/>
      <point x="245" y="578" type="line"/>
    </contour>
  </outline>
</glyph>
<glyph name="I.ss01" format="1">
  <advance width="259"/>
  <outline>
    <contour>
      <point x="-100" y="464" type="line"/>
      <point x="359" y="464" type="line"/>
      <point x="359" y="498" type="line"/>
      <point x="-100" y="498" type="line"/>
    </contour>
    <contour>
      <point x="-100" y="0" type="line"/>
      <point x="359" y="0" type="line"/>
      <point x="359" y="35" type="line"/>
      <point x="-100" y="35" type="line"/>
    </contour>
    <component base="i" xOffset="1" yOffset="1" xScale="1" yScale="1"/>
  </outline>
</glyph>
<glyph name="V.ss01" format="1">
  <advance width="500"/>
  <outline>
    <contour>
      <point x="-100" y="464" type="line"/>
      <point x="600" y="464" type="line"/>
      <point x="600" y="498" type="line"/>
      <point x="-100" y="498" type="line"/>
    </contour>
    <contour>
      <point x="-100" y="0" type="line"/>
      <point x="600" y="0" type="line"/>
      <point x="600" y="35" type="line"/>
      <point x="-100" y="35" type="line"/>
    </contour>
    <component base="v" xOffset="7" yOffset="6" xScale="0.98" yScale="0.98"/>
  </outline>
</glyph>
<glyph name="X.ss01" format="1">
  <advance width="520"/>
  <outline>
    <contour>
      <point x="-100" y="464" type="line"/>
      <point x="620" y="464" type="line"/>
      <point x="620" y="498" type="line"/>
      <point x="-100" y="498" type="line"/>
    </contour>
    <contour>
      <point x="-100" y="0" type="line"/>
      <point x="620" y="0" type="line"/>
      <point x="620" y="35" type="line"/>
      <point x="-100" y="35" type="line"/>
    </contour>
    <component base="x" xOffset="14" yOffset="14" xScale="0.95" yScale="0.95"/>
  </outline>
</glyph>
<glyph name="circumflextilde" format="1">
  <advance width="389"/>
  <outline>
    <component base="circumflex.cap" yOffset="-20"/>
    <component base="tilde" xOffset="16" yOffset="137" xScale="0.94" yScale="0.97"/>
    <contour>
      <point x="195" y="458" type="move" name="_top"/>
    </contour>
  </outline>
</glyph>
<glyph name="d.sups" format="1">
  <advance width="351"/>
  <outline>
    <contour>
      <point x="228" y="796" type="line"/>
      <point x="229" y="641" type="line"/>
      <point x="212" y="645"/>
      <point x="196" y="649"/>
      <point x="182" y="649" type="curve" smooth="yes"/>
      <point x="89" y="649"/>
      <point x="31" y="592"/>
      <point x="31" y="484" type="curve" smooth="yes"/>
      <point x="31" y="391"/>
      <point x="80" y="335"/>
      <point x="155" y="335" type="curve" smooth="yes"/>
      <point x="184" y="335"/>
      <point x="209" y="354"/>
      <point x="231" y="379" type="curve"/>
      <point x="234" y="379" type="line"/>
      <point x="241" y="346"/>
      <point x="257" y="333"/>
      <point x="284" y="333" type="curve" smooth="yes"/>
      <point x="301" y="333"/>
      <point x="316" y="338"/>
      <point x="330" y="348" type="curve"/>
      <point x="339" y="388" type="line"/>
      <point x="333" y="392" type="line"/>
      <point x="326" y="387"/>
      <point x="318" y="386"/>
      <point x="313" y="386" type="curve" smooth="yes"/>
      <point x="302" y="386"/>
      <point x="297" y="394"/>
      <point x="297" y="413" type="curve" smooth="yes"/>
      <point x="299" y="801" type="line"/>
    </contour>
    <contour>
      <point x="196" y="598"/>
      <point x="213" y="595"/>
      <point x="229" y="590" type="curve"/>
      <point x="231" y="423" type="line"/>
      <point x="212" y="400"/>
      <point x="190" y="388"/>
      <point x="167" y="388" type="curve" smooth="yes"/>
      <point x="124" y="388"/>
      <point x="97" y="423"/>
      <point x="97" y="493" type="curve" smooth="yes"/>
      <point x="97" y="565"/>
      <point x="126" y="598"/>
      <point x="180" y="598" type="curve" smooth="yes"/>
    </contour>
    <contour>
      <point x="190" y="151" type="move" name="center"/>
    </contour>
  </outline>
</glyph>
<glyph name="dieresismacron" format="1">
  <advance width="389"/>
  <outline>
    <contour>
      <point x="247" y="629"/>
      <point x="231" y="612"/>
      <point x="231" y="586" type="curve" smooth="yes"/>
      <point x="231" y="560"/>
      <point x="246" y="545"/>
      <point x="271" y="545" type="curve" smooth="yes"/>
      <point x="298" y="545"/>
      <point x="314" y="562"/>
      <point x="314" y="588" type="curve" smooth="yes"/>
      <point x="314" y="613"/>
      <point x="299" y="629"/>
      <point x="274" y="629" type="curve" smooth="yes"/>
    </contour>
    <contour>
      <point x="90" y="629"/>
      <point x="74" y="612"/>
      <point x="74" y="586" type="curve" smooth="yes"/>
      <point x="74" y="560"/>
      <point x="89" y="545"/>
      <point x="114" y="545" type="curve" smooth="yes"/>
      <point x="141" y="545"/>
      <point x="157" y="562"/>
      <point x="157" y="588" type="curve" smooth="yes"/>
      <point x="157" y="613"/>
      <point x="142" y="629"/>
      <point x="117" y="629" type="curve" smooth="yes"/>
    </contour>
    <contour>
      <point x="65" y="748" type="line"/>
      <point x="60" y="701" type="line"/>
      <point x="67" y="695" type="line"/>
      <point x="325" y="695" type="line"/>
      <point x="329" y="742" type="line"/>
      <point x="324" y="748" type="line"/>
    </contour>
    <contour>
      <point x="195" y="458" type="move" name="_top"/>
    </contour>
  </outline>
</glyph>
<glyph name="five.sinf" format="1">
  <advance width="304"/>
  <outline>
    <contour>
      <point x="202" y="259" type="line"/>
      <point x="104" y="259" type="line"/>
      <point x="69" y="260" type="line"/>
      <point x="60" y="250" type="line"/>
      <point x="58" y="78" type="line"/>
      <point x="62" y="71" type="line"/>
      <point x="123" y="60" type="line" smooth="yes"/>
      <point x="174" y="49"/>
      <point x="196" y="30"/>
      <point x="196" y="-1" type="curve" smooth="yes"/>
      <point x="196" y="-45"/>
      <point x="160" y="-72"/>
      <point x="102" y="-72" type="curve" smooth="yes"/>
      <point x="81" y="-72"/>
      <point x="58" y="-70"/>
      <point x="36" y="-64" type="curve"/>
      <point x="30" y="-69" type="line"/>
      <point x="35" y="-118" type="line"/>
      <point x="56" y="-122"/>
      <point x="83" y="-125"/>
      <point x="101" y="-125" type="curve" smooth="yes"/>
      <point x="199" y="-125"/>
      <point x="264" y="-74"/>
      <point x="264" y="4" type="curve" smooth="yes"/>
      <point x="264" y="60"/>
      <point x="229" y="93"/>
      <point x="154" y="109" type="curve" smooth="yes"/>
      <point x="112" y="119" type="line"/>
      <point x="114" y="205" type="line"/>
      <point x="205" y="205" type="line"/>
      <point x="254" y="200" type="line"/>
      <point x="260" y="205" type="line"/>
      <point x="266" y="257" type="line"/>
      <point x="263" y="261" type="line"/>
    </contour>
  </outline>
</glyph>
<glyph name="four.dnom" format="1">
  <advance width="351"/>
  <outline>
    <contour>
      <point x="190" y="379" type="line"/>
      <point x="26" y="149" type="line"/>
      <point x="26" y="105" type="line"/>
      <point x="31" y="98" type="line"/>
      <point x="82" y="101" type="line"/>
      <point x="245" y="101" type="line"/>
      <point x="313" y="98" type="line"/>
      <point x="317" y="147" type="line"/>
      <point x="312" y="153" type="line"/>
      <point x="88" y="153" type="line"/>
      <point x="192" y="300" type="line"/>
      <point x="196" y="300" type="line"/>
      <point x="196" y="138" type="line"/>
      <point x="195" y="1" type="line"/>
      <point x="198" y="-3" type="line"/>
      <point x="254" y="0" type="line"/>
      <point x="258" y="6" type="line"/>
      <point x="254" y="127" type="line"/>
      <point x="255" y="379" type="line"/>
    </contour>
  </outline>
</glyph>
<glyph name="g.sups" format="1">
  <advance width="329"/>
  <outline>
    <contour>
      <point x="93" y="453" type="line"/>
      <point x="74" y="439"/>
      <point x="58" y="426"/>
      <point x="49" y="411" type="curve"/>
      <point x="48" y="314"/>
      <point x="246" y="366"/>
      <point x="246" y="302" type="curve" smooth="yes"/>
      <point x="246" y="273"/>
      <point x="212" y="251"/>
      <point x="167" y="251" type="curve" smooth="yes"/>
      <point x="123" y="251"/>
      <point x="99" y="271"/>
      <point x="99" y="295" type="curve" smooth="yes"/>
      <point x="99" y="317"/>
      <point x="118" y="332"/>
      <point x="143" y="348" type="curve"/>
      <point x="99" y="359" type="line"/>
      <point x="99" y="350" type="line"/>
      <point x="69" y="334"/>
      <point x="44" y="315"/>
      <point x="41" y="291" type="curve" smooth="yes"/>
      <point x="41" y="245"/>
      <point x="85" y="210"/>
      <point x="162" y="210" type="curve" smooth="yes"/>
      <point x="247" y="210"/>
      <point x="308" y="253"/>
      <point x="308" y="313" type="curve" smooth="yes"/>
      <point x="308" y="422"/>
      <point x="108" y="375"/>
      <point x="108" y="421" type="curve" smooth="yes"/>
      <point x="108" y="429"/>
      <point x="112" y="434"/>
      <point x="129" y="447" type="curve"/>
      <point x="93" y="460" type="line"/>
    </contour>
    <contour>
      <point x="209" y="602"/>
      <point x="231" y="581"/>
      <point x="231" y="543" type="curve" smooth="yes"/>
      <point x="231" y="503"/>
      <point x="208" y="482"/>
      <point x="169" y="482" type="curve" smooth="yes"/>
      <point x="130" y="482"/>
      <point x="109" y="503"/>
      <point x="109" y="542" type="curve" smooth="yes"/>
      <point x="109" y="580"/>
      <point x="131" y="602"/>
      <point x="171" y="602" type="curve" smooth="yes"/>
    </contour>
    <contour>
      <point x="92" y="648"/>
      <point x="45" y="608"/>
      <point x="45" y="541" type="curve" smooth="yes"/>
      <point x="45" y="477"/>
      <point x="90" y="439"/>
      <point x="167" y="439" type="curve" smooth="yes"/>
      <point x="245" y="439"/>
      <point x="294" y="479"/>
      <point x="294" y="545" type="curve" smooth="yes"/>
      <point x="294" y="605"/>
      <point x="244" y="648"/>
      <point x="170" y="648" type="curve" smooth="yes"/>
    </contour>
    <contour>
      <point x="301" y="649"/>
      <point x="265" y="637"/>
      <point x="233" y="632" type="curve"/>
      <point x="273" y="585" type="line"/>
      <point x="280" y="599" type="line"/>
      <point x="298" y="601"/>
      <point x="314" y="604"/>
      <point x="334" y="608" type="curve"/>
      <point x="334" y="655" type="line"/>
      <point x="328" y="659" type="line"/>
    </contour>
    <contour>
      <point x="185" y="297" type="move" name="top"/>
    </contour>
  </outline>
</glyph>
<glyph name="hungarumlaut.cap" format="1">
  <advance width="389"/>
  <outline>
    <contour>
      <point x="215" y="536" type="line"/>
      <point x="224" y="537" type="line"/>
      <point x="264" y="574"/>
      <point x="304" y="609"/>
      <point x="343" y="647" type="curve"/>
      <point x="343" y="656" type="line"/>
      <point x="305" y="681" type="line"/>
      <point x="298" y="681" type="line"/>
      <point x="262" y="639"/>
      <point x="226" y="600"/>
      <point x="189" y="560" type="curve"/>
    </contour>
    <contour>
      <point x="72" y="536" type="line"/>
      <point x="81" y="537" type="line"/>
      <point x="122" y="574"/>
      <point x="161" y="609"/>
      <point x="200" y="647" type="curve"/>
      <point x="200" y="656" type="line"/>
      <point x="163" y="681" type="line"/>
      <point x="155" y="681" type="line"/>
      <point x="120" y="639"/>
      <point x="83" y="600"/>
      <point x="46" y="560" type="curve"/>
    </contour>
    <contour>
      <point x="169" y="458" type="move" name="_top"/>
    </contour>
  </outline>
</glyph>
<glyph name="p.sups" format="1">
  <advance width="346"/>
  <outline>
    <contour>
      <point x="168" y="645"/>
      <point x="142" y="625"/>
      <point x="120" y="599" type="curve"/>
      <point x="104" y="599" type="line"/>
      <point x="108" y="550" type="line"/>
      <point x="128" y="576"/>
      <point x="152" y="588"/>
      <point x="178" y="588" type="curve" smooth="yes"/>
      <point x="224" y="588"/>
      <point x="247" y="555"/>
      <point x="247" y="490" type="curve" smooth="yes"/>
      <point x="247" y="414"/>
      <point x="216" y="379"/>
      <point x="163" y="379" type="curve" smooth="yes"/>
      <point x="136" y="379"/>
      <point x="97" y="393"/>
      <point x="62" y="417" type="curve"/>
      <point x="61" y="356" type="line"/>
      <point x="99" y="339"/>
      <point x="133" y="331"/>
      <point x="166" y="331" type="curve" smooth="yes"/>
      <point x="258" y="331"/>
      <point x="315" y="391"/>
      <point x="315" y="498" type="curve" smooth="yes"/>
      <point x="315" y="592"/>
      <point x="272" y="645"/>
      <point x="199" y="645" type="curve" smooth="yes"/>
    </contour>
    <contour>
      <point x="49" y="638" type="line"/>
      <point x="51" y="465" type="line"/>
      <point x="49" y="217" type="line"/>
      <point x="119" y="217" type="line"/>
      <point x="116" y="471" type="line"/>
      <point x="116" y="645" type="line"/>
    </contour>
    <contour>
      <point x="117" y="352" type="line"/>
      <point x="117" y="605" type="line"/>
    </contour>
  </outline>
</glyph>
<glyph name="three.sinf" format="1">
  <advance width="308"/>
  <outline>
    <contour>
      <point x="104" y="263"/>
      <point x="65" y="250"/>
      <point x="30" y="224" type="curve"/>
      <point x="41" y="177" type="line"/>
      <point x="49" y="177" type="line"/>
      <point x="78" y="197"/>
      <point x="102" y="208"/>
      <point x="128" y="208" type="curve" smooth="yes"/>
      <point x="160" y="208"/>
      <point x="179" y="192"/>
      <point x="179" y="164" type="curve" smooth="yes"/>
      <point x="179" y="128"/>
      <point x="142" y="101"/>
      <point x="109" y="101" type="curve" smooth="yes"/>
      <point x="79" y="101" type="line"/>
      <point x="78" y="54" type="line"/>
      <point x="82" y="49" type="line"/>
      <point x="125" y="49" type="line"/>
      <point x="171" y="48"/>
      <point x="196" y="27"/>
      <point x="196" y="-8" type="curve" smooth="yes"/>
      <point x="196" y="-47"/>
      <point x="162" y="-71"/>
      <point x="108" y="-71" type="curve" smooth="yes"/>
      <point x="87" y="-71"/>
      <point x="63" y="-68"/>
      <point x="39" y="-62" type="curve"/>
      <point x="34" y="-67" type="line"/>
      <point x="39" y="-117" type="line"/>
      <point x="59" y="-122"/>
      <point x="86" y="-124"/>
      <point x="107" y="-124" type="curve" smooth="yes"/>
      <point x="201" y="-124"/>
      <point x="264" y="-78"/>
      <point x="264" y="-9" type="curve" smooth="yes"/>
      <point x="264" y="37"/>
      <point x="238" y="69"/>
      <point x="189" y="82" type="curve"/>
      <point x="189" y="86" type="line"/>
      <point x="232" y="106"/>
      <point x="251" y="144"/>
      <point x="251" y="177" type="curve" smooth="yes"/>
      <point x="251" y="229"/>
      <point x="207" y="263"/>
      <point x="142" y="263" type="curve" smooth="yes"/>
    </contour>
  </outline>
</glyph>
<glyph name="two.sinf" format="1">
  <advance width="349"/>
  <outline>
    <contour>
      <point x="128" y="262"/>
      <point x="82" y="241"/>
      <point x="42" y="207" type="curve"/>
      <point x="54" y="154" type="line"/>
      <point x="62" y="154" type="line"/>
      <point x="90" y="186"/>
      <point x="127" y="205"/>
      <point x="160" y="205" type="curve" smooth="yes"/>
      <point x="194" y="205"/>
      <point x="212" y="185"/>
      <point x="212" y="161" type="curve" smooth="yes"/>
      <point x="212" y="130"/>
      <point x="183" y="94"/>
      <point x="137" y="38" type="curve" smooth="yes"/>
      <point x="39" y="-76" type="line"/>
      <point x="39" y="-118" type="line"/>
      <point x="43" y="-121" type="line"/>
      <point x="70" y="-120" type="line"/>
      <point x="235" y="-120" type="line"/>
      <point x="316" y="-123" type="line"/>
      <point x="323" y="-68" type="line"/>
      <point x="320" y="-62" type="line"/>
      <point x="257" y="-65" type="line"/>
      <point x="134" y="-65" type="line"/>
      <point x="132" y="-63" type="line"/>
      <point x="198" y="22" type="line" smooth="yes"/>
      <point x="256" y="93"/>
      <point x="283" y="136"/>
      <point x="283" y="176" type="curve" smooth="yes"/>
      <point x="283" y="230"/>
      <point x="237" y="262"/>
      <point x="177" y="262" type="curve" smooth="yes"/>
    </contour>
  </outline>
</glyph>
<glyph name="two.tf" format="1">
  <advance width="475"/>
  <outline>
    <contour>
      <point x="171" y="592"/>
      <point x="105" y="557"/>
      <point x="53" y="502" type="curve"/>
      <point x="66" y="440" type="line"/>
      <point x="75" y="440" type="line"/>
      <point x="118" y="493"/>
      <point x="171" y="523"/>
      <point x="222" y="523" type="curve" smooth="yes"/>
      <point x="278" y="523"/>
      <point x="308" y="488"/>
      <point x="308" y="445" type="curve" smooth="yes"/>
      <point x="308" y="394"/>
      <point x="263" y="334"/>
      <point x="193" y="241" type="curve" smooth="yes"/>
      <point x="46" y="53" type="line"/>
      <point x="46" y="2" type="line"/>
      <point x="51" y="-2" type="line"/>
      <point x="91" y="0" type="line"/>
      <point x="334" y="0" type="line"/>
      <point x="442" y="-4" type="line"/>
      <point x="452" y="60" type="line"/>
      <point x="447" y="67" type="line"/>
      <point x="355" y="64" type="line"/>
      <point x="150" y="64" type="line"/>
      <point x="148" y="68" type="line"/>
      <point x="260" y="220" type="line" smooth="yes"/>
      <point x="342" y="330"/>
      <point x="385" y="399"/>
      <point x="385" y="463" type="curve" smooth="yes"/>
      <point x="385" y="541"/>
      <point x="324" y="592"/>
      <point x="240" y="592" type="curve" smooth="yes"/>
    </contour>
  </outline>
</glyph>
<glyph name="up" format="1">
  <advance width="411"/>
  <outline>
    <contour>
      <point x="64" y="104" type="line"/>
      <point x="348" y="104" type="line"/>
      <point x="205" y="388" type="line"/>
    </contour>
  </outline>
</glyph>
<glyph name="w.sups" format="1">
  <advance width="451"/>
  <outline>
    <contour>
      <point x="13" y="641" type="line"/>
      <point x="94" y="338" type="line"/>
      <point x="165" y="338" type="line"/>
      <point x="227" y="551" type="line"/>
      <point x="233" y="551" type="line"/>
      <point x="287" y="338" type="line"/>
      <point x="355" y="338" type="line"/>
      <point x="451" y="644" type="line"/>
      <point x="390" y="644" type="line"/>
      <point x="379" y="597" type="line"/>
      <point x="326" y="415" type="line"/>
      <point x="322" y="415" type="line"/>
      <point x="277" y="601" type="line"/>
      <point x="270" y="644" type="line"/>
      <point x="199" y="644" type="line"/>
      <point x="189" y="597" type="line"/>
      <point x="136" y="413" type="line"/>
      <point x="132" y="413" type="line"/>
      <point x="87" y="601" type="line"/>
      <point x="79" y="646" type="line"/>
    </contour>
    <contour>
      <point x="242" y="302" type="move" name="top"/>
    </contour>
  </outline>
</glyph>
<glyph name="x.sups" format="1">
  <advance width="294"/>
  <outline>
    <contour>
      <point x="13" y="640" type="line"/>
      <point x="101" y="493" type="line"/>
      <point x="10" y="338" type="line"/>
      <point x="75" y="338" type="line"/>
      <point x="88" y="366" type="line"/>
      <point x="141" y="451" type="line"/>
      <point x="190" y="371" type="line"/>
      <point x="205" y="335" type="line"/>
      <point x="281" y="341" type="line"/>
      <point x="189" y="493" type="line"/>
      <point x="278" y="642" type="line"/>
      <point x="214" y="642" type="line"/>
      <point x="199" y="612" type="line"/>
      <point x="151" y="534" type="line"/>
      <point x="103" y="613" type="line"/>
      <point x="90" y="646" type="line"/>
    </contour>
  </outline>
</glyph>
